<mxfile host="app.diagrams.net" agent="Mozilla/5.0 (Windows NT 10.0; Win64; x64) AppleWebKit/537.36 (KHTML, like Gecko) Chrome/136.0.0.0 Safari/537.36" version="27.0.9">
  <diagram name="Page-1" id="c37626ed-c26b-45fb-9056-f9ebc6bb27b6">
    <mxGraphModel grid="1" page="1" gridSize="10" guides="1" tooltips="1" connect="1" arrows="1" fold="1" pageScale="1" pageWidth="1100" pageHeight="850" background="none" math="0" shadow="0">
      <root>
        <mxCell id="0" />
        <mxCell id="1" parent="0" />
        <mxCell id="1c7a67bf8fd3230f-49" style="edgeStyle=none;html=1;labelBackgroundColor=none;startFill=0;endArrow=none;endFill=0;strokeWidth=2;fontFamily=Verdana;fontSize=12;entryX=0.5;entryY=0;entryDx=0;entryDy=0;entryPerimeter=0;" edge="1" parent="1" target="1c7a67bf8fd3230f-46">
          <mxGeometry relative="1" as="geometry">
            <mxPoint x="310" y="380" as="sourcePoint" />
          </mxGeometry>
        </mxCell>
        <mxCell id="1c7a67bf8fd3230f-55" style="edgeStyle=none;html=1;labelBackgroundColor=none;startFill=0;endArrow=none;endFill=0;strokeWidth=2;fontFamily=Verdana;fontSize=12;exitX=0.5;exitY=1;exitDx=0;exitDy=0;exitPerimeter=0;strokeColor=#000000;" edge="1" parent="1" source="1c7a67bf8fd3230f-46">
          <mxGeometry relative="1" as="geometry">
            <mxPoint x="220" y="600" as="sourcePoint" />
            <mxPoint x="310" y="660" as="targetPoint" />
          </mxGeometry>
        </mxCell>
        <mxCell id="1c7a67bf8fd3230f-46" value="" style="shape=mxgraph.cisco.routers.router;html=1;dashed=0;fillColor=#036897;strokeColor=#ffffff;strokeWidth=2;verticalLabelPosition=bottom;verticalAlign=top;rounded=0;shadow=0;comic=0;fontFamily=Verdana;fontSize=12;" vertex="1" parent="1">
          <mxGeometry x="190" y="492" width="78" height="53" as="geometry" />
        </mxCell>
        <mxCell id="P0-c6NR_3_v5P01_Kzta-1" value="" style="shape=mxgraph.cisco.routers.router;html=1;dashed=0;fillColor=#036897;strokeColor=#ffffff;strokeWidth=2;verticalLabelPosition=bottom;verticalAlign=top;rounded=0;shadow=0;comic=0;fontFamily=Verdana;fontSize=12;" vertex="1" parent="1">
          <mxGeometry x="310" y="350" width="78" height="53" as="geometry" />
        </mxCell>
        <mxCell id="P0-c6NR_3_v5P01_Kzta-2" value="" style="shape=mxgraph.cisco.routers.router;html=1;dashed=0;fillColor=#036897;strokeColor=#ffffff;strokeWidth=2;verticalLabelPosition=bottom;verticalAlign=top;rounded=0;shadow=0;comic=0;fontFamily=Verdana;fontSize=12;" vertex="1" parent="1">
          <mxGeometry x="310" y="630" width="78" height="53" as="geometry" />
        </mxCell>
        <mxCell id="P0-c6NR_3_v5P01_Kzta-3" value="" style="shape=mxgraph.cisco.routers.router;html=1;dashed=0;fillColor=#036897;strokeColor=#ffffff;strokeWidth=2;verticalLabelPosition=bottom;verticalAlign=top;rounded=0;shadow=0;comic=0;fontFamily=Verdana;fontSize=12;" vertex="1" parent="1">
          <mxGeometry x="500" y="350" width="78" height="53" as="geometry" />
        </mxCell>
        <mxCell id="P0-c6NR_3_v5P01_Kzta-4" value="" style="shape=mxgraph.cisco.routers.router;html=1;dashed=0;fillColor=#036897;strokeColor=#ffffff;strokeWidth=2;verticalLabelPosition=bottom;verticalAlign=top;rounded=0;shadow=0;comic=0;fontFamily=Verdana;fontSize=12;" vertex="1" parent="1">
          <mxGeometry x="500" y="630" width="78" height="53" as="geometry" />
        </mxCell>
        <mxCell id="P0-c6NR_3_v5P01_Kzta-5" value="" style="shape=mxgraph.cisco.routers.router;html=1;dashed=0;fillColor=#036897;strokeColor=#ffffff;strokeWidth=2;verticalLabelPosition=bottom;verticalAlign=top;rounded=0;shadow=0;comic=0;fontFamily=Verdana;fontSize=12;" vertex="1" parent="1">
          <mxGeometry x="500" y="492" width="78" height="53" as="geometry" />
        </mxCell>
        <mxCell id="P0-c6NR_3_v5P01_Kzta-6" value="" style="shape=mxgraph.cisco.routers.router;html=1;dashed=0;fillColor=#036897;strokeColor=#ffffff;strokeWidth=2;verticalLabelPosition=bottom;verticalAlign=top;rounded=0;shadow=0;comic=0;fontFamily=Verdana;fontSize=12;" vertex="1" parent="1">
          <mxGeometry x="690" y="350" width="78" height="53" as="geometry" />
        </mxCell>
        <mxCell id="P0-c6NR_3_v5P01_Kzta-7" value="" style="shape=mxgraph.cisco.routers.router;html=1;dashed=0;fillColor=#036897;strokeColor=#ffffff;strokeWidth=2;verticalLabelPosition=bottom;verticalAlign=top;rounded=0;shadow=0;comic=0;fontFamily=Verdana;fontSize=12;" vertex="1" parent="1">
          <mxGeometry x="690" y="630" width="78" height="53" as="geometry" />
        </mxCell>
        <mxCell id="P0-c6NR_3_v5P01_Kzta-8" value="" style="shape=mxgraph.cisco.routers.router;html=1;dashed=0;fillColor=#036897;strokeColor=#ffffff;strokeWidth=2;verticalLabelPosition=bottom;verticalAlign=top;rounded=0;shadow=0;comic=0;fontFamily=Verdana;fontSize=12;" vertex="1" parent="1">
          <mxGeometry x="812" y="492" width="78" height="53" as="geometry" />
        </mxCell>
        <mxCell id="P0-c6NR_3_v5P01_Kzta-9" value="" style="shape=mxgraph.cisco.routers.router;html=1;dashed=0;fillColor=#036897;strokeColor=#ffffff;strokeWidth=2;verticalLabelPosition=bottom;verticalAlign=top;rounded=0;shadow=0;comic=0;fontFamily=Verdana;fontSize=12;" vertex="1" parent="1">
          <mxGeometry x="600" y="219" width="78" height="53" as="geometry" />
        </mxCell>
        <mxCell id="P0-c6NR_3_v5P01_Kzta-11" style="edgeStyle=none;html=1;labelBackgroundColor=none;startFill=0;endArrow=none;endFill=0;strokeWidth=2;fontFamily=Verdana;fontSize=12;entryX=1;entryY=0.5;entryDx=0;entryDy=0;entryPerimeter=0;exitX=0;exitY=0.5;exitDx=0;exitDy=0;exitPerimeter=0;" edge="1" parent="1" source="P0-c6NR_3_v5P01_Kzta-3" target="P0-c6NR_3_v5P01_Kzta-1">
          <mxGeometry relative="1" as="geometry">
            <mxPoint x="320" y="390" as="sourcePoint" />
            <mxPoint x="239" y="502" as="targetPoint" />
          </mxGeometry>
        </mxCell>
        <mxCell id="P0-c6NR_3_v5P01_Kzta-12" style="edgeStyle=none;html=1;labelBackgroundColor=none;startFill=0;endArrow=none;endFill=0;strokeWidth=2;fontFamily=Verdana;fontSize=12;entryX=0.5;entryY=1;entryDx=0;entryDy=0;entryPerimeter=0;exitX=0.5;exitY=0;exitDx=0;exitDy=0;exitPerimeter=0;" edge="1" parent="1" source="P0-c6NR_3_v5P01_Kzta-2" target="P0-c6NR_3_v5P01_Kzta-1">
          <mxGeometry relative="1" as="geometry">
            <mxPoint x="510" y="387" as="sourcePoint" />
            <mxPoint x="398" y="387" as="targetPoint" />
          </mxGeometry>
        </mxCell>
        <mxCell id="P0-c6NR_3_v5P01_Kzta-13" style="edgeStyle=none;html=1;labelBackgroundColor=none;startFill=0;endArrow=none;endFill=0;strokeWidth=2;fontFamily=Verdana;fontSize=12;entryX=0.5;entryY=0;entryDx=0;entryDy=0;entryPerimeter=0;exitX=0.5;exitY=1;exitDx=0;exitDy=0;exitPerimeter=0;" edge="1" parent="1" source="P0-c6NR_3_v5P01_Kzta-3" target="P0-c6NR_3_v5P01_Kzta-5">
          <mxGeometry relative="1" as="geometry">
            <mxPoint x="520" y="397" as="sourcePoint" />
            <mxPoint x="408" y="397" as="targetPoint" />
          </mxGeometry>
        </mxCell>
        <mxCell id="P0-c6NR_3_v5P01_Kzta-14" style="edgeStyle=none;html=1;labelBackgroundColor=none;startFill=0;endArrow=none;endFill=0;strokeWidth=2;fontFamily=Verdana;fontSize=12;entryX=0.5;entryY=0;entryDx=0;entryDy=0;entryPerimeter=0;exitX=0.5;exitY=1;exitDx=0;exitDy=0;exitPerimeter=0;" edge="1" parent="1" source="P0-c6NR_3_v5P01_Kzta-5" target="P0-c6NR_3_v5P01_Kzta-4">
          <mxGeometry relative="1" as="geometry">
            <mxPoint x="530" y="407" as="sourcePoint" />
            <mxPoint x="418" y="407" as="targetPoint" />
          </mxGeometry>
        </mxCell>
        <mxCell id="P0-c6NR_3_v5P01_Kzta-15" style="edgeStyle=none;html=1;labelBackgroundColor=none;startFill=0;endArrow=none;endFill=0;strokeWidth=2;fontFamily=Verdana;fontSize=12;entryX=1;entryY=0.5;entryDx=0;entryDy=0;entryPerimeter=0;exitX=0;exitY=0.5;exitDx=0;exitDy=0;exitPerimeter=0;strokeColor=#000000;" edge="1" parent="1" source="P0-c6NR_3_v5P01_Kzta-4" target="P0-c6NR_3_v5P01_Kzta-2">
          <mxGeometry relative="1" as="geometry">
            <mxPoint x="540" y="417" as="sourcePoint" />
            <mxPoint x="428" y="417" as="targetPoint" />
          </mxGeometry>
        </mxCell>
        <mxCell id="P0-c6NR_3_v5P01_Kzta-16" style="edgeStyle=none;html=1;labelBackgroundColor=none;startFill=0;endArrow=none;endFill=0;strokeWidth=2;fontFamily=Verdana;fontSize=12;entryX=1;entryY=0.5;entryDx=0;entryDy=0;entryPerimeter=0;exitX=0;exitY=0.5;exitDx=0;exitDy=0;exitPerimeter=0;strokeColor=#000000;" edge="1" parent="1" source="P0-c6NR_3_v5P01_Kzta-7" target="P0-c6NR_3_v5P01_Kzta-4">
          <mxGeometry relative="1" as="geometry">
            <mxPoint x="550" y="427" as="sourcePoint" />
            <mxPoint x="438" y="427" as="targetPoint" />
          </mxGeometry>
        </mxCell>
        <mxCell id="P0-c6NR_3_v5P01_Kzta-17" style="edgeStyle=none;html=1;labelBackgroundColor=none;startFill=0;endArrow=none;endFill=0;strokeWidth=2;fontFamily=Verdana;fontSize=12;entryX=1;entryY=0.5;entryDx=0;entryDy=0;entryPerimeter=0;exitX=0;exitY=0.5;exitDx=0;exitDy=0;exitPerimeter=0;" edge="1" parent="1" source="P0-c6NR_3_v5P01_Kzta-6" target="P0-c6NR_3_v5P01_Kzta-3">
          <mxGeometry relative="1" as="geometry">
            <mxPoint x="560" y="437" as="sourcePoint" />
            <mxPoint x="448" y="437" as="targetPoint" />
          </mxGeometry>
        </mxCell>
        <mxCell id="P0-c6NR_3_v5P01_Kzta-18" style="edgeStyle=none;html=1;labelBackgroundColor=none;startFill=0;endArrow=none;endFill=0;strokeWidth=2;fontFamily=Verdana;fontSize=12;entryX=0.5;entryY=1;entryDx=0;entryDy=0;entryPerimeter=0;exitX=0.5;exitY=0;exitDx=0;exitDy=0;exitPerimeter=0;" edge="1" parent="1" source="P0-c6NR_3_v5P01_Kzta-7" target="P0-c6NR_3_v5P01_Kzta-6">
          <mxGeometry relative="1" as="geometry">
            <mxPoint x="570" y="447" as="sourcePoint" />
            <mxPoint x="458" y="447" as="targetPoint" />
          </mxGeometry>
        </mxCell>
        <mxCell id="P0-c6NR_3_v5P01_Kzta-19" style="edgeStyle=none;html=1;labelBackgroundColor=none;startFill=0;endArrow=none;endFill=0;strokeWidth=2;fontFamily=Verdana;fontSize=12;entryX=1;entryY=0.5;entryDx=0;entryDy=0;entryPerimeter=0;exitX=0.5;exitY=1;exitDx=0;exitDy=0;exitPerimeter=0;strokeColor=#000000;" edge="1" parent="1" source="P0-c6NR_3_v5P01_Kzta-8" target="P0-c6NR_3_v5P01_Kzta-7">
          <mxGeometry relative="1" as="geometry">
            <mxPoint x="580" y="457" as="sourcePoint" />
            <mxPoint x="468" y="457" as="targetPoint" />
          </mxGeometry>
        </mxCell>
        <mxCell id="P0-c6NR_3_v5P01_Kzta-20" style="edgeStyle=none;html=1;labelBackgroundColor=none;startFill=0;endArrow=none;endFill=0;strokeWidth=2;fontFamily=Verdana;fontSize=12;entryX=0.5;entryY=0;entryDx=0;entryDy=0;entryPerimeter=0;exitX=1;exitY=0.5;exitDx=0;exitDy=0;exitPerimeter=0;" edge="1" parent="1" source="P0-c6NR_3_v5P01_Kzta-6" target="P0-c6NR_3_v5P01_Kzta-8">
          <mxGeometry relative="1" as="geometry">
            <mxPoint x="590" y="467" as="sourcePoint" />
            <mxPoint x="478" y="467" as="targetPoint" />
          </mxGeometry>
        </mxCell>
        <mxCell id="P0-c6NR_3_v5P01_Kzta-21" style="edgeStyle=none;html=1;labelBackgroundColor=none;startFill=0;endArrow=none;endFill=0;strokeWidth=2;fontFamily=Verdana;fontSize=12;entryX=0.5;entryY=0;entryDx=0;entryDy=0;entryPerimeter=0;exitX=0;exitY=0.5;exitDx=0;exitDy=0;exitPerimeter=0;" edge="1" parent="1" source="P0-c6NR_3_v5P01_Kzta-9" target="P0-c6NR_3_v5P01_Kzta-3">
          <mxGeometry relative="1" as="geometry">
            <mxPoint x="600" y="477" as="sourcePoint" />
            <mxPoint x="488" y="477" as="targetPoint" />
          </mxGeometry>
        </mxCell>
        <mxCell id="P0-c6NR_3_v5P01_Kzta-22" style="edgeStyle=none;html=1;labelBackgroundColor=none;startFill=0;endArrow=none;endFill=0;strokeWidth=2;fontFamily=Verdana;fontSize=12;entryX=1;entryY=0.5;entryDx=0;entryDy=0;entryPerimeter=0;exitX=0.5;exitY=0;exitDx=0;exitDy=0;exitPerimeter=0;" edge="1" parent="1" source="P0-c6NR_3_v5P01_Kzta-6" target="P0-c6NR_3_v5P01_Kzta-9">
          <mxGeometry relative="1" as="geometry">
            <mxPoint x="610" y="487" as="sourcePoint" />
            <mxPoint x="498" y="487" as="targetPoint" />
          </mxGeometry>
        </mxCell>
        <mxCell id="P0-c6NR_3_v5P01_Kzta-24" value="" style="shape=mxgraph.cisco.computers_and_peripherals.terminal;sketch=0;html=1;pointerEvents=1;dashed=0;fillColor=#036897;strokeColor=#ffffff;strokeWidth=2;verticalLabelPosition=bottom;verticalAlign=top;align=center;outlineConnect=0;" vertex="1" parent="1">
          <mxGeometry x="-130" y="371.5" width="90" height="78" as="geometry" />
        </mxCell>
        <mxCell id="P0-c6NR_3_v5P01_Kzta-27" value="" style="shape=mxgraph.cisco.computers_and_peripherals.terminal;sketch=0;html=1;pointerEvents=1;dashed=0;fillColor=#036897;strokeColor=#ffffff;strokeWidth=2;verticalLabelPosition=bottom;verticalAlign=top;align=center;outlineConnect=0;" vertex="1" parent="1">
          <mxGeometry x="1070" y="479.5" width="90" height="78" as="geometry" />
        </mxCell>
        <mxCell id="P0-c6NR_3_v5P01_Kzta-28" value="" style="shape=mxgraph.cisco.computers_and_peripherals.terminal;sketch=0;html=1;pointerEvents=1;dashed=0;fillColor=#036897;strokeColor=#ffffff;strokeWidth=2;verticalLabelPosition=bottom;verticalAlign=top;align=center;outlineConnect=0;" vertex="1" parent="1">
          <mxGeometry x="594" y="-50" width="90" height="78" as="geometry" />
        </mxCell>
        <mxCell id="P0-c6NR_3_v5P01_Kzta-29" style="edgeStyle=none;html=1;labelBackgroundColor=none;startFill=0;endArrow=none;endFill=0;strokeWidth=2;fontFamily=Verdana;fontSize=12;exitX=0;exitY=0.5;exitDx=0;exitDy=0;exitPerimeter=0;strokeColor=#000000;entryX=1;entryY=0.5;entryDx=0;entryDy=0;entryPerimeter=0;" edge="1" parent="1" source="AzgCiQbJXhC4TjzG9wEr-3" target="AzgCiQbJXhC4TjzG9wEr-14">
          <mxGeometry relative="1" as="geometry">
            <mxPoint x="320" y="390" as="sourcePoint" />
            <mxPoint y="520" as="targetPoint" />
          </mxGeometry>
        </mxCell>
        <mxCell id="P0-c6NR_3_v5P01_Kzta-30" style="edgeStyle=none;html=1;labelBackgroundColor=none;startFill=0;endArrow=none;endFill=0;strokeWidth=2;fontFamily=Verdana;fontSize=12;entryX=1;entryY=0.5;entryDx=0;entryDy=0;entryPerimeter=0;exitX=0.15;exitY=0.5;exitDx=0;exitDy=0;exitPerimeter=0;strokeColor=#000000;" edge="1" parent="1" source="AzgCiQbJXhC4TjzG9wEr-8" target="P0-c6NR_3_v5P01_Kzta-8">
          <mxGeometry relative="1" as="geometry">
            <mxPoint x="330" y="400" as="sourcePoint" />
            <mxPoint x="249" y="512" as="targetPoint" />
          </mxGeometry>
        </mxCell>
        <mxCell id="P0-c6NR_3_v5P01_Kzta-32" style="edgeStyle=none;html=1;labelBackgroundColor=none;startFill=0;endArrow=none;endFill=0;strokeWidth=2;fontFamily=Verdana;fontSize=12;entryX=0.5;entryY=0;entryDx=0;entryDy=0;entryPerimeter=0;exitX=0.5;exitY=1;exitDx=0;exitDy=0;exitPerimeter=0;" edge="1" parent="1" source="P0-c6NR_3_v5P01_Kzta-28" target="P0-c6NR_3_v5P01_Kzta-9">
          <mxGeometry relative="1" as="geometry">
            <mxPoint x="340" y="410" as="sourcePoint" />
            <mxPoint x="259" y="522" as="targetPoint" />
          </mxGeometry>
        </mxCell>
        <mxCell id="P0-c6NR_3_v5P01_Kzta-33" value="&lt;font style=&quot;font-size: 16px;&quot;&gt;r1&lt;/font&gt;" style="text;html=1;align=center;verticalAlign=middle;whiteSpace=wrap;rounded=0;" vertex="1" parent="1">
          <mxGeometry x="319" y="320" width="60" height="30" as="geometry" />
        </mxCell>
        <mxCell id="P0-c6NR_3_v5P01_Kzta-34" value="&lt;font style=&quot;font-size: 16px;&quot;&gt;r2&lt;/font&gt;" style="text;html=1;align=center;verticalAlign=middle;whiteSpace=wrap;rounded=0;" vertex="1" parent="1">
          <mxGeometry x="490" y="320" width="60" height="30" as="geometry" />
        </mxCell>
        <mxCell id="P0-c6NR_3_v5P01_Kzta-35" value="&lt;font style=&quot;font-size: 16px;&quot;&gt;r3&lt;/font&gt;" style="text;html=1;align=center;verticalAlign=middle;whiteSpace=wrap;rounded=0;" vertex="1" parent="1">
          <mxGeometry x="670" y="330" width="60" height="30" as="geometry" />
        </mxCell>
        <mxCell id="P0-c6NR_3_v5P01_Kzta-36" value="&lt;font style=&quot;font-size: 16px;&quot;&gt;r4&lt;/font&gt;" style="text;html=1;align=center;verticalAlign=middle;whiteSpace=wrap;rounded=0;" vertex="1" parent="1">
          <mxGeometry x="340" y="600" width="60" height="30" as="geometry" />
        </mxCell>
        <mxCell id="P0-c6NR_3_v5P01_Kzta-37" value="&lt;font style=&quot;font-size: 16px;&quot;&gt;rg&lt;/font&gt;" style="text;html=1;align=center;verticalAlign=middle;whiteSpace=wrap;rounded=0;" vertex="1" parent="1">
          <mxGeometry x="180" y="470" width="60" height="30" as="geometry" />
        </mxCell>
        <mxCell id="P0-c6NR_3_v5P01_Kzta-38" value="&lt;font style=&quot;font-size: 16px;&quot;&gt;r5&lt;/font&gt;" style="text;html=1;align=center;verticalAlign=middle;whiteSpace=wrap;rounded=0;" vertex="1" parent="1">
          <mxGeometry x="490" y="470" width="60" height="30" as="geometry" />
        </mxCell>
        <mxCell id="P0-c6NR_3_v5P01_Kzta-40" value="&lt;font style=&quot;font-size: 16px;&quot;&gt;r6&lt;/font&gt;" style="text;html=1;align=center;verticalAlign=middle;whiteSpace=wrap;rounded=0;" vertex="1" parent="1">
          <mxGeometry x="500" y="600" width="60" height="30" as="geometry" />
        </mxCell>
        <mxCell id="P0-c6NR_3_v5P01_Kzta-41" value="&lt;font style=&quot;font-size: 16px;&quot;&gt;r7&lt;/font&gt;" style="text;html=1;align=center;verticalAlign=middle;whiteSpace=wrap;rounded=0;" vertex="1" parent="1">
          <mxGeometry x="678" y="600" width="60" height="30" as="geometry" />
        </mxCell>
        <mxCell id="P0-c6NR_3_v5P01_Kzta-43" value="&lt;font style=&quot;font-size: 16px;&quot;&gt;ru&lt;/font&gt;" style="text;html=1;align=center;verticalAlign=middle;whiteSpace=wrap;rounded=0;" vertex="1" parent="1">
          <mxGeometry x="850" y="470" width="60" height="30" as="geometry" />
        </mxCell>
        <mxCell id="P0-c6NR_3_v5P01_Kzta-44" value="&lt;font style=&quot;font-size: 16px;&quot;&gt;rc&lt;/font&gt;" style="text;html=1;align=center;verticalAlign=middle;whiteSpace=wrap;rounded=0;" vertex="1" parent="1">
          <mxGeometry x="630" y="189" width="60" height="30" as="geometry" />
        </mxCell>
        <mxCell id="P0-c6NR_3_v5P01_Kzta-45" value="&lt;font style=&quot;font-size: 16px;&quot;&gt;hupf-h1&lt;/font&gt;" style="text;html=1;align=center;verticalAlign=middle;whiteSpace=wrap;rounded=0;" vertex="1" parent="1">
          <mxGeometry x="1085" y="449.5" width="60" height="30" as="geometry" />
        </mxCell>
        <mxCell id="P0-c6NR_3_v5P01_Kzta-46" value="&lt;font style=&quot;font-size: 16px;&quot;&gt;hcpd-h2&lt;/font&gt;" style="text;html=1;align=center;verticalAlign=middle;whiteSpace=wrap;rounded=0;" vertex="1" parent="1">
          <mxGeometry x="602" y="-80" width="82" height="30" as="geometry" />
        </mxCell>
        <mxCell id="P0-c6NR_3_v5P01_Kzta-47" value="&lt;font style=&quot;font-size: 16px;&quot;&gt;hgnb-h1&lt;/font&gt;" style="text;html=1;align=center;verticalAlign=middle;whiteSpace=wrap;rounded=0;" vertex="1" parent="1">
          <mxGeometry x="-130" y="342" width="90" height="29.5" as="geometry" />
        </mxCell>
        <mxCell id="AzgCiQbJXhC4TjzG9wEr-4" value="" style="edgeStyle=none;html=1;labelBackgroundColor=none;startFill=0;endArrow=none;endFill=0;strokeWidth=2;fontFamily=Verdana;fontSize=12;entryX=1;entryY=0.5;entryDx=0;entryDy=0;entryPerimeter=0;exitX=0;exitY=0.5;exitDx=0;exitDy=0;exitPerimeter=0;strokeColor=#000000;" edge="1" parent="1" source="1c7a67bf8fd3230f-46" target="AzgCiQbJXhC4TjzG9wEr-3">
          <mxGeometry relative="1" as="geometry">
            <mxPoint x="190" y="519" as="sourcePoint" />
            <mxPoint x="10" y="519" as="targetPoint" />
          </mxGeometry>
        </mxCell>
        <mxCell id="AzgCiQbJXhC4TjzG9wEr-3" value="" style="shape=mxgraph.cisco.routers.router;html=1;dashed=0;fillColor=#036897;strokeColor=#ffffff;strokeWidth=2;verticalLabelPosition=bottom;verticalAlign=top;rounded=0;shadow=0;comic=0;fontFamily=Verdana;fontSize=12;" vertex="1" parent="1">
          <mxGeometry x="50" y="492" width="78" height="53" as="geometry" />
        </mxCell>
        <mxCell id="AzgCiQbJXhC4TjzG9wEr-5" value="&lt;font style=&quot;font-size: 16px;&quot;&gt;rgnb&lt;/font&gt;" style="text;html=1;align=center;verticalAlign=middle;whiteSpace=wrap;rounded=0;" vertex="1" parent="1">
          <mxGeometry x="59" y="462.5" width="60" height="29.5" as="geometry" />
        </mxCell>
        <mxCell id="AzgCiQbJXhC4TjzG9wEr-6" value="" style="shape=mxgraph.cisco.routers.router;html=1;dashed=0;fillColor=#036897;strokeColor=#ffffff;strokeWidth=2;verticalLabelPosition=bottom;verticalAlign=top;rounded=0;shadow=0;comic=0;fontFamily=Verdana;fontSize=12;" vertex="1" parent="1">
          <mxGeometry x="600" y="100" width="78" height="53" as="geometry" />
        </mxCell>
        <mxCell id="AzgCiQbJXhC4TjzG9wEr-7" value="&lt;font style=&quot;font-size: 16px;&quot;&gt;rcpd&lt;/font&gt;" style="text;html=1;align=center;verticalAlign=middle;whiteSpace=wrap;rounded=0;" vertex="1" parent="1">
          <mxGeometry x="670" y="111.75" width="60" height="29.5" as="geometry" />
        </mxCell>
        <mxCell id="AzgCiQbJXhC4TjzG9wEr-9" value="" style="edgeStyle=none;html=1;labelBackgroundColor=none;startFill=0;endArrow=none;endFill=0;strokeWidth=2;fontFamily=Verdana;fontSize=12;entryX=1;entryY=0.5;entryDx=0;entryDy=0;entryPerimeter=0;exitX=0.15;exitY=0.5;exitDx=0;exitDy=0;exitPerimeter=0;strokeColor=#000000;" edge="1" parent="1" source="P0-c6NR_3_v5P01_Kzta-27" target="AzgCiQbJXhC4TjzG9wEr-8">
          <mxGeometry relative="1" as="geometry">
            <mxPoint x="1084" y="519" as="sourcePoint" />
            <mxPoint x="890" y="519" as="targetPoint" />
          </mxGeometry>
        </mxCell>
        <mxCell id="AzgCiQbJXhC4TjzG9wEr-8" value="" style="shape=mxgraph.cisco.routers.router;html=1;dashed=0;fillColor=#036897;strokeColor=#ffffff;strokeWidth=2;verticalLabelPosition=bottom;verticalAlign=top;rounded=0;shadow=0;comic=0;fontFamily=Verdana;fontSize=12;" vertex="1" parent="1">
          <mxGeometry x="950" y="492" width="78" height="53" as="geometry" />
        </mxCell>
        <mxCell id="AzgCiQbJXhC4TjzG9wEr-10" value="&lt;font style=&quot;font-size: 16px;&quot;&gt;rupf&lt;/font&gt;" style="text;html=1;align=center;verticalAlign=middle;whiteSpace=wrap;rounded=0;" vertex="1" parent="1">
          <mxGeometry x="959" y="462.5" width="60" height="30" as="geometry" />
        </mxCell>
        <mxCell id="AzgCiQbJXhC4TjzG9wEr-12" style="edgeStyle=none;html=1;labelBackgroundColor=none;startFill=0;endArrow=none;endFill=0;strokeWidth=2;fontFamily=Verdana;fontSize=12;strokeColor=#000000;" edge="1" parent="1">
          <mxGeometry relative="1" as="geometry">
            <mxPoint y="630" as="sourcePoint" />
            <mxPoint y="410" as="targetPoint" />
          </mxGeometry>
        </mxCell>
        <mxCell id="AzgCiQbJXhC4TjzG9wEr-13" style="edgeStyle=none;html=1;labelBackgroundColor=none;startFill=0;endArrow=none;endFill=0;strokeWidth=2;fontFamily=Verdana;fontSize=12;strokeColor=#000000;exitX=1;exitY=0.5;exitDx=0;exitDy=0;exitPerimeter=0;" edge="1" parent="1" source="P0-c6NR_3_v5P01_Kzta-24">
          <mxGeometry relative="1" as="geometry">
            <mxPoint x="10" y="610" as="sourcePoint" />
            <mxPoint y="410" as="targetPoint" />
          </mxGeometry>
        </mxCell>
        <mxCell id="AzgCiQbJXhC4TjzG9wEr-14" value="" style="shape=mxgraph.cisco.computers_and_peripherals.terminal;sketch=0;html=1;pointerEvents=1;dashed=0;fillColor=#036897;strokeColor=#ffffff;strokeWidth=2;verticalLabelPosition=bottom;verticalAlign=top;align=center;outlineConnect=0;" vertex="1" parent="1">
          <mxGeometry x="-130" y="479.5" width="90" height="78" as="geometry" />
        </mxCell>
        <mxCell id="AzgCiQbJXhC4TjzG9wEr-15" value="&lt;font style=&quot;font-size: 16px;&quot;&gt;hgn-h2&lt;/font&gt;" style="text;html=1;align=center;verticalAlign=middle;whiteSpace=wrap;rounded=0;" vertex="1" parent="1">
          <mxGeometry x="-130" y="450" width="90" height="29.5" as="geometry" />
        </mxCell>
        <mxCell id="AzgCiQbJXhC4TjzG9wEr-16" value="" style="shape=mxgraph.cisco.computers_and_peripherals.terminal;sketch=0;html=1;pointerEvents=1;dashed=0;fillColor=#036897;strokeColor=#ffffff;strokeWidth=2;verticalLabelPosition=bottom;verticalAlign=top;align=center;outlineConnect=0;" vertex="1" parent="1">
          <mxGeometry x="-130" y="590" width="90" height="78" as="geometry" />
        </mxCell>
        <mxCell id="AzgCiQbJXhC4TjzG9wEr-17" value="&lt;font style=&quot;font-size: 16px;&quot;&gt;hgnb-h3&lt;/font&gt;" style="text;html=1;align=center;verticalAlign=middle;whiteSpace=wrap;rounded=0;" vertex="1" parent="1">
          <mxGeometry x="-130" y="557.5" width="90" height="29.5" as="geometry" />
        </mxCell>
        <mxCell id="AzgCiQbJXhC4TjzG9wEr-18" style="edgeStyle=none;html=1;labelBackgroundColor=none;startFill=0;endArrow=none;endFill=0;strokeWidth=2;fontFamily=Verdana;fontSize=12;strokeColor=#000000;exitX=1;exitY=0.5;exitDx=0;exitDy=0;exitPerimeter=0;" edge="1" parent="1">
          <mxGeometry relative="1" as="geometry">
            <mxPoint x="-40" y="630" as="sourcePoint" />
            <mxPoint y="629" as="targetPoint" />
          </mxGeometry>
        </mxCell>
        <mxCell id="AzgCiQbJXhC4TjzG9wEr-23" value="" style="shape=mxgraph.cisco.computers_and_peripherals.terminal;sketch=0;html=1;pointerEvents=1;dashed=0;fillColor=#036897;strokeColor=#ffffff;strokeWidth=2;verticalLabelPosition=bottom;verticalAlign=top;align=center;outlineConnect=0;" vertex="1" parent="1">
          <mxGeometry x="700" y="-50" width="90" height="78" as="geometry" />
        </mxCell>
        <mxCell id="AzgCiQbJXhC4TjzG9wEr-24" value="&lt;font style=&quot;font-size: 16px;&quot;&gt;hcpd-h3&lt;/font&gt;" style="text;html=1;align=center;verticalAlign=middle;whiteSpace=wrap;rounded=0;" vertex="1" parent="1">
          <mxGeometry x="708" y="-80" width="82" height="30" as="geometry" />
        </mxCell>
        <mxCell id="AzgCiQbJXhC4TjzG9wEr-25" value="" style="shape=mxgraph.cisco.computers_and_peripherals.terminal;sketch=0;html=1;pointerEvents=1;dashed=0;fillColor=#036897;strokeColor=#ffffff;strokeWidth=2;verticalLabelPosition=bottom;verticalAlign=top;align=center;outlineConnect=0;" vertex="1" parent="1">
          <mxGeometry x="475" y="-50" width="90" height="78" as="geometry" />
        </mxCell>
        <mxCell id="AzgCiQbJXhC4TjzG9wEr-26" value="&lt;font style=&quot;font-size: 16px;&quot;&gt;hcpd&lt;/font&gt;&lt;span style=&quot;font-size: 16px; background-color: transparent; color: light-dark(rgb(0, 0, 0), rgb(255, 255, 255));&quot;&gt;-h1&lt;/span&gt;" style="text;html=1;align=center;verticalAlign=middle;whiteSpace=wrap;rounded=0;" vertex="1" parent="1">
          <mxGeometry x="494" y="-80" width="71" height="30" as="geometry" />
        </mxCell>
        <mxCell id="AzgCiQbJXhC4TjzG9wEr-27" style="edgeStyle=none;html=1;labelBackgroundColor=none;startFill=0;endArrow=none;endFill=0;strokeWidth=2;fontFamily=Verdana;fontSize=12;" edge="1" parent="1">
          <mxGeometry relative="1" as="geometry">
            <mxPoint x="520" y="50" as="sourcePoint" />
            <mxPoint x="750" y="50" as="targetPoint" />
          </mxGeometry>
        </mxCell>
        <mxCell id="AzgCiQbJXhC4TjzG9wEr-28" style="edgeStyle=none;html=1;labelBackgroundColor=none;startFill=0;endArrow=none;endFill=0;strokeWidth=2;fontFamily=Verdana;fontSize=12;exitX=0.5;exitY=1;exitDx=0;exitDy=0;exitPerimeter=0;" edge="1" parent="1" source="AzgCiQbJXhC4TjzG9wEr-25">
          <mxGeometry relative="1" as="geometry">
            <mxPoint x="530" y="60" as="sourcePoint" />
            <mxPoint x="520" y="50" as="targetPoint" />
          </mxGeometry>
        </mxCell>
        <mxCell id="AzgCiQbJXhC4TjzG9wEr-29" style="edgeStyle=none;html=1;labelBackgroundColor=none;startFill=0;endArrow=none;endFill=0;strokeWidth=2;fontFamily=Verdana;fontSize=12;" edge="1" parent="1">
          <mxGeometry relative="1" as="geometry">
            <mxPoint x="750" y="30" as="sourcePoint" />
            <mxPoint x="750" y="50" as="targetPoint" />
          </mxGeometry>
        </mxCell>
      </root>
    </mxGraphModel>
  </diagram>
</mxfile>
